<svg aria-hidden="true" style="position: absolute; width: 0; height: 0; overflow: hidden;" version="1.1" xmlns="http://www.w3.org/2000/svg" xmlns:xlink="http://www.w3.org/1999/xlink">
<defs>
<symbol id="dv4-home" viewBox="0 0 64 64">
<title>home</title>
<path d="M64 36.903l-32-24.839-32 24.839v-10.127l32-24.839 32 24.839zM56 36v24h-16v-16h-16v16h-16v-24l24-18z"></path>
</symbol>
<symbol id="dv4-pencil" viewBox="0 0 64 64">
<title>pencil</title>
<path d="M54 0c5.523 0 10 4.477 10 10 0 2.251-0.744 4.329-2 6l-4 4-14-14 4-4c1.671-1.256 3.749-2 6-2zM4 46l-4 18 18-4 37-37-14-14-37 37zM44.724 22.724l-28 28-3.447-3.447 28-28 3.447 3.447z"></path>
</symbol>
<symbol id="dv4-paint-format" viewBox="0 0 64 64">
<title>paint-format</title>
<path d="M64 36v-24h-12v-4c0-2.2-1.8-4-4-4h-44c-2.2 0-4 1.8-4 4v12c0 2.2 1.8 4 4 4h44c2.2 0 4-1.8 4-4v-4h8v16h-36v8h-2c-1.105 0-2 0.895-2 2v20c0 1.105 0.895 2 2 2h8c1.105 0 2-0.895 2-2v-20c0-1.105-0.895-2-2-2h-2v-4h36zM48 12h-44v-4h44v4z"></path>
</symbol>
<symbol id="dv4-image" viewBox="0 0 64 64">
<title>image</title>
<path d="M59.993 8c0.002 0.002 0.005 0.005 0.007 0.007v47.986c-0.002 0.002-0.005 0.005-0.007 0.007h-55.986c-0.003-0.002-0.005-0.005-0.007-0.007v-47.986c0.002-0.002 0.005-0.005 0.007-0.007h55.986zM60 4h-56c-2.2 0-4 1.8-4 4v48c0 2.2 1.8 4 4 4h56c2.2 0 4-1.8 4-4v-48c0-2.2-1.8-4-4-4v0z"></path>
<path d="M52 18c0 3.314-2.686 6-6 6s-6-2.686-6-6 2.686-6 6-6 6 2.686 6 6z"></path>
<path d="M56 52h-48v-8l14-24 16 20h4l14-12z"></path>
</symbol>
<symbol id="dv4-camera" viewBox="0 0 64 64">
<title>camera</title>
<path d="M19 38c0 7.18 5.82 13 13 13s13-5.82 13-13-5.82-13-13-13-13 5.82-13 13zM60 16h-14c-1-4-2-8-6-8h-16c-4 0-5 4-6 8h-14c-2.2 0-4 1.8-4 4v36c0 2.2 1.8 4 4 4h56c2.2 0 4-1.8 4-4v-36c0-2.2-1.8-4-4-4zM32 55.75c-9.803 0-17.75-7.947-17.75-17.75s7.947-17.75 17.75-17.75c9.803 0 17.75 7.947 17.75 17.75s-7.947 17.75-17.75 17.75zM60 28h-8v-4h8v4z"></path>
</symbol>
<symbol id="dv4-video-camera" viewBox="0 0 64 64">
<title>video-camera</title>
<path d="M24 18c0-5.523 4.477-10 10-10s10 4.477 10 10c0 5.523-4.477 10-10 10s-10-4.477-10-10zM0 18c0-5.523 4.477-10 10-10s10 4.477 10 10c0 5.523-4.477 10-10 10s-10-4.477-10-10zM48 38v-6c0-2.2-1.8-4-4-4h-40c-2.2 0-4 1.8-4 4v20c0 2.2 1.8 4 4 4h40c2.2 0 4-1.8 4-4v-6l16 10v-28l-16 10zM40 48h-32v-12h32v12z"></path>
</symbol>
<symbol id="dv4-connection" viewBox="0 0 80 64">
<title>connection</title>
<path d="M40 36c6.617 0 12.617 2.692 16.963 7.037l-5.654 5.654c-2.897-2.897-6.897-4.692-11.308-4.692s-8.411 1.794-11.308 4.692l-5.654-5.654c4.346-4.346 10.346-7.037 16.963-7.037zM11.716 31.716c7.555-7.555 17.6-11.716 28.284-11.716s20.729 4.161 28.284 11.716l-5.657 5.657c-6.044-6.044-14.080-9.373-22.627-9.373s-16.583 3.328-22.627 9.373l-5.657-5.657zM61.799 8.402c6.669 2.821 12.657 6.858 17.799 12v0l-5.657 5.657c-9.066-9.066-21.12-14.059-33.941-14.059s-24.875 4.993-33.941 14.059l-5.657-5.657c5.142-5.142 11.13-9.179 17.799-12 6.907-2.921 14.241-4.402 21.799-4.402s14.892 1.481 21.799 4.402zM36 56c0-2.209 1.791-4 4-4s4 1.791 4 4c0 2.209-1.791 4-4 4s-4-1.791-4-4z"></path>
</symbol>
<symbol id="dv4-mic" viewBox="0 0 64 64">
<title>mic</title>
<path d="M30 44c5.523 0 10-4.477 10-10v-24c0-5.523-4.477-10-10-10s-10 4.477-10 10v24c0 5.523 4.477 10 10 10zM44 28v6c0 7.732-6.268 14-14 14s-14-6.268-14-14v-6h-4v6c0 9.265 7 16.894 16 17.889v8.111h-8v4h20v-4h-8v-8.111c9-0.995 16-8.624 16-17.889v-6h-4z"></path>
</symbol>
<symbol id="dv4-stack" viewBox="0 0 64 64">
<title>stack</title>
<path d="M64 20l-32-16-32 16 32 16 32-16zM32 9.311l21.379 10.689-21.379 10.689-21.379-10.689 21.379-10.689zM57.59 28.795l6.41 3.205-32 16-32-16 6.41-3.205 25.59 12.795zM57.59 40.795l6.41 3.205-32 16-32-16 6.41-3.205 25.59 12.795z"></path>
</symbol>
<symbol id="dv4-folder" viewBox="0 0 64 64">
<title>folder</title>
<path d="M28 8l8 8h28v44h-64v-52z"></path>
</symbol>
<symbol id="dv4-folder-open" viewBox="0 0 64 64">
<title>folder-open</title>
<path d="M52 60l12-32h-52l-12 32zM8 24l-8 36v-52h18l8 8h26v8z"></path>
</symbol>
<symbol id="dv4-phone" viewBox="0 0 64 64">
<title>phone</title>
<path d="M44 40c-4 4-4 8-8 8s-8-4-12-8-8-8-8-12 4-4 8-8-8-16-12-16-12 12-12 12c0 8 8.219 24.219 16 32s24 16 32 16c0 0 12-8 12-12s-12-16-16-12z"></path>
</symbol>
<symbol id="dv4-map" viewBox="0 0 64 64">
<title>map</title>
<path d="M0 12l20-8v48l-20 8z"></path>
<path d="M24 2l20 12v46l-20-10z"></path>
<path d="M48 14l16-12v48l-16 12z"></path>
</symbol>
<symbol id="dv4-key2" viewBox="0 0 64 64">
<title>key2</title>
<path d="M62.633 19.64l-6.319-6.319c-1.55-1.55-4.086-4.085-5.635-5.635l-6.319-6.319c-1.55-1.55-4.31-1.823-6.133-0.607l-17.277 11.518c-1.823 1.216-2.514 3.814-1.534 5.774l4.405 8.811c0.135 0.269 0.29 0.556 0.462 0.854l-22.283 22.283-2 14h12v-4h8v-8h8v-8h8v-4.449c0.4 0.238 0.783 0.451 1.137 0.628l8.811 4.406c1.96 0.98 4.559 0.29 5.774-1.534l11.518-17.277c1.216-1.823 0.942-4.583-0.607-6.133zM9.414 53.414l-2.828-2.828 19.473-19.473 2.828 2.828-19.473 19.473zM57.314 26.485l-2.828 2.828c-0.778 0.778-2.050 0.778-2.828 0l-16.971-16.971c-0.778-0.778-0.778-2.051 0-2.828l2.828-2.829c0.778-0.778 2.050-0.778 2.828 0l16.971 16.971c0.778 0.778 0.778 2.051 0 2.828z"></path>
</symbol>
<symbol id="dv4-wrench" viewBox="0 0 64 64">
<title>wrench</title>
<path d="M62.683 51.117l-28.785-24.672c1.34-2.519 2.101-5.393 2.101-8.445 0-9.941-8.059-18-18-18-1.818 0-3.573 0.271-5.228 0.772l10.399 10.399c1.556 1.556 1.556 4.101 0 5.657l-6.343 6.343c-1.556 1.556-4.101 1.556-5.657 0l-10.399-10.399c-0.501 1.655-0.772 3.41-0.772 5.228 0 9.941 8.059 18 18 18 3.052 0 5.926-0.761 8.445-2.101l24.672 28.785c1.432 1.67 3.876 1.764 5.431 0.209l6.343-6.343c1.555-1.556 1.462-4-0.209-5.431z"></path>
</symbol>
<symbol id="dv4-equalizer" viewBox="0 0 64 64">
<title>equalizer</title>
<path d="M28 8v-1c0-1.65-1.35-3-3-3h-10c-1.65 0-3 1.35-3 3v1h-12v8h12v1c0 1.65 1.35 3 3 3h10c1.65 0 3-1.35 3-3v-1h36v-8h-36zM16 16v-8h8v8h-8zM52 27c0-1.65-1.35-3-3-3h-10c-1.65 0-3 1.35-3 3v1h-36v8h36v1c0 1.65 1.35 3 3 3h10c1.65 0 3-1.35 3-3v-1h12v-8h-12v-1zM40 36v-8h8v8h-8zM28 47c0-1.65-1.35-3-3-3h-10c-1.65 0-3 1.35-3 3v1h-12v8h12v1c0 1.65 1.35 3 3 3h10c1.65 0 3-1.35 3-3v-1h36v-8h-36v-1zM16 56v-8h8v8h-8z"></path>
</symbol>
<symbol id="dv4-equalizer2" viewBox="0 0 64 64">
<title>equalizer2</title>
<path d="M56 28h1c1.65 0 3-1.35 3-3v-10c0-1.65-1.35-3-3-3h-1v-12h-8v12h-1c-1.65 0-3 1.35-3 3v10c0 1.65 1.35 3 3 3h1v36h8v-36zM48 16h8v8h-8v-8zM37 52c1.65 0 3-1.35 3-3v-10c0-1.65-1.35-3-3-3h-1v-36h-8v36h-1c-1.65 0-3 1.35-3 3v10c0 1.65 1.35 3 3 3h1v12h8v-12h1zM28 40h8v8h-8v-8zM17 28c1.65 0 3-1.35 3-3v-10c0-1.65-1.35-3-3-3h-1v-12h-8v12h-1c-1.65 0-3 1.35-3 3v10c0 1.65 1.35 3 3 3h1v36h8v-36h1zM8 16h8v8h-8v-8z"></path>
</symbol>
<symbol id="dv4-cog" viewBox="0 0 64 64">
<title>cog</title>
<path d="M58.362 38.141c-3.358-5.816-1.339-13.269 4.51-16.655l-6.289-10.893c-1.797 1.053-3.886 1.657-6.115 1.657-6.721 0-12.169-5.484-12.169-12.249h-12.579c0.017 2.088-0.505 4.205-1.622 6.141-3.358 5.816-10.822 7.794-16.679 4.422l-6.289 10.893c1.811 1.029 3.378 2.537 4.493 4.467 3.352 5.807 1.345 13.245-4.482 16.639l6.289 10.893c1.791-1.044 3.87-1.641 6.088-1.641 6.7 0 12.134 5.45 12.169 12.185h12.578c-0.005-2.067 0.517-4.161 1.623-6.076 3.352-5.807 10.798-7.787 16.651-4.438l6.289-10.893c-1.799-1.029-3.356-2.531-4.465-4.452zM32 44.958c-7.157 0-12.959-5.801-12.959-12.958s5.802-12.958 12.959-12.958c7.157 0 12.958 5.802 12.958 12.958s-5.801 12.958-12.958 12.958z"></path>
</symbol>
<symbol id="dv4-cogs" viewBox="0 0 64 64">
<title>cogs</title>
<path d="M22.733 45.128l2.581-3.614-2.828-2.828-3.614 2.581c-0.67-0.375-1.388-0.673-2.142-0.887l-0.73-4.38h-4l-0.73 4.38c-0.754 0.214-1.472 0.512-2.142 0.887l-3.614-2.581-2.829 2.828 2.581 3.614c-0.375 0.67-0.673 1.388-0.887 2.142l-4.38 0.73v4l4.38 0.73c0.214 0.754 0.512 1.471 0.887 2.142l-2.581 3.614 2.828 2.828 3.614-2.581c0.67 0.375 1.388 0.673 2.142 0.887l0.73 4.38h4l0.73-4.38c0.754-0.214 1.471-0.512 2.142-0.887l3.614 2.581 2.828-2.828-2.581-3.614c0.375-0.67 0.673-1.388 0.887-2.142l4.381-0.73v-4l-4.38-0.73c-0.214-0.754-0.512-1.471-0.887-2.142zM14 54c-2.209 0-4-1.791-4-4s1.791-4 4-4 4 1.791 4 4-1.791 4-4 4zM64 24v-4l-4.211-0.766c-0.078-0.503-0.177-0.999-0.295-1.487l3.597-2.319-1.531-3.696-4.184 0.904c-0.263-0.432-0.545-0.851-0.843-1.258l2.438-3.521-2.828-2.828-3.521 2.438c-0.407-0.298-0.826-0.58-1.258-0.843l0.904-4.184-3.696-1.531-2.319 3.597c-0.488-0.118-0.984-0.218-1.487-0.295l-0.766-4.211h-4l-0.766 4.211c-0.503 0.078-0.998 0.177-1.487 0.295l-2.319-3.597-3.695 1.531 0.904 4.184c-0.432 0.263-0.851 0.545-1.258 0.843l-3.521-2.438-2.828 2.828 2.438 3.521c-0.298 0.407-0.58 0.826-0.843 1.258l-4.184-0.904-1.531 3.696 3.597 2.319c-0.118 0.488-0.218 0.984-0.295 1.487l-4.212 0.766v4l4.211 0.766c0.078 0.503 0.177 0.999 0.295 1.487l-3.597 2.319 1.531 3.696 4.184-0.904c0.264 0.432 0.546 0.851 0.843 1.258l-2.438 3.521 2.828 2.828 3.521-2.438c0.407 0.298 0.826 0.58 1.258 0.843l-0.904 4.184 3.695 1.531 2.319-3.597c0.488 0.118 0.984 0.218 1.487 0.295l0.766 4.212h4l0.766-4.211c0.503-0.078 0.998-0.177 1.487-0.295l2.319 3.597 3.696-1.531-0.904-4.184c0.432-0.264 0.851-0.545 1.258-0.843l3.521 2.438 2.828-2.828-2.438-3.521c0.298-0.407 0.58-0.826 0.843-1.258l4.184 0.904 1.531-3.696-3.597-2.319c0.118-0.488 0.218-0.984 0.295-1.487l4.211-0.766zM42 30.7c-4.805 0-8.7-3.895-8.7-8.7s3.895-8.7 8.7-8.7 8.7 3.895 8.7 8.7c0 4.805-3.895 8.7-8.7 8.7z"></path>
</symbol>
<symbol id="dv4-pie-chart" viewBox="0 0 64 64">
<title>pie-chart</title>
<path d="M28 36v-28c-15.464 0-28 12.536-28 28s12.536 28 28 28 28-12.536 28-28c0-4.502-1.064-8.755-2.952-12.524l-25.048 12.524zM57.048 15.476c-4.597-9.176-14.086-15.476-25.048-15.476v28l25.048-12.524z"></path>
</symbol>
<symbol id="dv4-stats-dots" viewBox="0 0 64 64">
<title>stats-dots</title>
<path d="M8 56h56v8h-64v-64h8zM18 52c-3.314 0-6-2.686-6-6s2.686-6 6-6c0.177 0 0.351 0.009 0.524 0.024l6.45-10.749c-0.615-0.942-0.974-2.066-0.974-3.275 0-3.314 2.686-6 6-6s6 2.686 6 6c0 1.209-0.359 2.333-0.974 3.275l6.45 10.749c0.173-0.015 0.347-0.024 0.524-0.024 0.133 0 0.266 0.006 0.397 0.014l10.647-18.633c-0.658-0.963-1.044-2.127-1.044-3.382 0-3.314 2.686-6 6-6s6 2.686 6 6c0 3.314-2.686 6-6 6-0.134 0-0.266-0.006-0.397-0.015l-10.647 18.633c0.658 0.963 1.044 2.127 1.044 3.382 0 3.314-2.686 6-6 6s-6-2.686-6-6c0-1.209 0.359-2.333 0.974-3.275l-6.449-10.749c-0.173 0.015-0.348 0.024-0.524 0.024s-0.351-0.009-0.524-0.024l-6.45 10.749c0.615 0.942 0.974 2.066 0.974 3.275 0 3.314-2.686 6-6 6z"></path>
</symbol>
<symbol id="dv4-stats-bars" viewBox="0 0 64 64">
<title>stats-bars</title>
<path d="M0 52h64v8h-64zM8 36h8v12h-8zM20 20h8v28h-8zM32 32h8v16h-8zM44 8h8v40h-8z"></path>
</symbol>
<symbol id="dv4-trophy" viewBox="0 0 64 64">
<title>trophy</title>
<path d="M52 12v-8h-40v8h-12v8c0 6.627 5.372 12 12 12 1.255 0 2.464-0.193 3.601-0.55 2.886 4.126 7.288 7.112 12.399 8.15v12.4h-4c-4.418 0-8 3.582-8 8h32c0-4.418-3.582-8-8-8h-4v-12.4c5.111-1.038 9.513-4.024 12.399-8.15 1.137 0.357 2.346 0.55 3.601 0.55 6.628 0 12-5.373 12-12v-8h-12zM12 27.25c-3.998 0-7.25-3.252-7.25-7.25v-4h7.25v4c0 2.512 0.464 4.915 1.31 7.129-0.425 0.078-0.862 0.121-1.31 0.121zM59.25 20c0 3.998-3.252 7.25-7.25 7.25-0.447 0-0.885-0.043-1.31-0.121 0.845-2.215 1.31-4.618 1.31-7.129v-4h7.25v4z"></path>
</symbol>
<symbol id="dv4-switch" viewBox="0 0 64 64">
<title>switch</title>
<path d="M40 9.162v8.497c2.263 0.988 4.344 2.401 6.142 4.199 3.778 3.777 5.858 8.8 5.858 14.142s-2.080 10.365-5.858 14.142c-3.777 3.777-8.8 5.858-14.142 5.858s-10.365-2.080-14.142-5.858c-3.777-3.777-5.858-8.8-5.858-14.142s2.080-10.365 5.858-14.142c1.798-1.798 3.879-3.211 6.142-4.199v-8.497c-11.566 3.443-20 14.155-20 26.838 0 15.464 12.536 28 28 28s28-12.536 28-28c0-12.684-8.434-23.396-20-26.838zM28 0h8v32h-8z"></path>
</symbol>
<symbol id="dv4-list-numbered" viewBox="0 0 64 64">
<title>list-numbered</title>
<path d="M24 52h40v8h-40zM24 28h40v8h-40zM24 4h40v8h-40zM12 0v16h-4v-12h-4v-4zM8 32.875v3.125h8v4h-12v-9.125l8-3.75v-3.125h-8v-4h12v9.125zM16 44v20h-12v-4h8v-4h-8v-4h8v-4h-8v-4z"></path>
</symbol>
<symbol id="dv4-list" viewBox="0 0 64 64">
<title>list</title>
<path d="M0 0h16v16h-16zM24 4h40v8h-40zM0 24h16v16h-16zM24 28h40v8h-40zM0 48h16v16h-16zM24 52h40v8h-40z"></path>
</symbol>
<symbol id="dv4-list2" viewBox="0 0 64 64">
<title>list2</title>
<path d="M24 4h40v8h-40v-8zM24 28h40v8h-40v-8zM24 52h40v8h-40v-8zM0 8c0-4.418 3.582-8 8-8s8 3.582 8 8c0 4.418-3.582 8-8 8s-8-3.582-8-8zM0 32c0-4.418 3.582-8 8-8s8 3.582 8 8c0 4.418-3.582 8-8 8s-8-3.582-8-8zM0 56c0-4.418 3.582-8 8-8s8 3.582 8 8c0 4.418-3.582 8-8 8s-8-3.582-8-8z"></path>
</symbol>
<symbol id="dv4-tree" viewBox="0 0 64 64">
<title>tree</title>
<path d="M61 48h-1v-13c0-3.86-3.14-7-7-7h-17v-8h1c1.65 0 3-1.35 3-3v-10c0-1.65-1.35-3-3-3h-10c-1.65 0-3 1.35-3 3v10c0 1.65 1.35 3 3 3h1v8h-17c-3.86 0-7 3.14-7 7v13h-1c-1.65 0-3 1.35-3 3v10c0 1.65 1.35 3 3 3h10c1.65 0 3-1.35 3-3v-10c0-1.65-1.35-3-3-3h-1v-12h16v12h-1c-1.65 0-3 1.35-3 3v10c0 1.65 1.35 3 3 3h10c1.65 0 3-1.35 3-3v-10c0-1.65-1.35-3-3-3h-1v-12h16v12h-1c-1.65 0-3 1.35-3 3v10c0 1.65 1.35 3 3 3h10c1.65 0 3-1.35 3-3v-10c0-1.65-1.35-3-3-3zM12 60h-8v-8h8v8zM36 60h-8v-8h8v8zM28 16v-8h8v8h-8zM60 60h-8v-8h8v8z"></path>
</symbol>
<symbol id="dv4-menu" viewBox="0 0 64 64">
<title>menu</title>
<path d="M4 12h56v12h-56zM4 28h56v12h-56zM4 44h56v12h-56z"></path>
</symbol>
<symbol id="dv4-menu2" viewBox="0 0 88 64">
<title>menu2</title>
<path d="M0 12h56v12h-56v-12zM0 28h56v12h-56v-12zM0 44h56v12h-56v-12z"></path>
<path d="M62 36l12 12 12-12z"></path>
<path d="M86 32l-12-12-12 12z"></path>
</symbol>
<symbol id="dv4-menu3" viewBox="0 0 88 64">
<title>menu3</title>
<path d="M0 12h56v12h-56v-12zM0 28h56v12h-56v-12zM0 44h56v12h-56v-12z"></path>
<path d="M62 28l12 12 12-12z"></path>
</symbol>
<symbol id="dv4-menu4" viewBox="0 0 88 64">
<title>menu4</title>
<path d="M0 12h56v12h-56v-12zM0 28h56v12h-56v-12zM0 44h56v12h-56v-12z"></path>
<path d="M62 40l12-12 12 12z"></path>
</symbol>
<symbol id="dv4-flag" viewBox="0 0 64 64">
<title>flag</title>
<path d="M0 0h8v64h-8v-64z"></path>
<path d="M52 40.188c5.164 0 9.661-1.249 12-3.094v-32c-2.339 1.845-6.836 3.094-12 3.094s-9.661-1.249-12-3.094v32c2.339 1.845 6.836 3.094 12 3.094z"></path>
<path d="M38 2.033c-2.932-1.246-7.22-2.033-12-2.033-6.025 0-11.271 1.249-14 3.094v32c2.729-1.845 7.975-3.094 14-3.094 4.78 0 9.068 0.787 12 2.033v-32z"></path>
</symbol>
<symbol id="dv4-star-empty" viewBox="0 0 64 64">
<title>star-empty</title>
<path d="M64 24.816l-22.111-3.213-9.889-20.036-9.889 20.036-22.111 3.213 16 15.596-3.777 22.022 19.777-10.397 19.777 10.397-3.777-22.022 16-15.596zM32 47.094l-13.966 7.343 2.667-15.552-11.299-11.014 15.615-2.269 6.983-14.15 6.983 14.15 15.615 2.269-11.299 11.014 2.667 15.552-13.966-7.343z"></path>
</symbol>
<symbol id="dv4-star-half" viewBox="0 0 64 64">
<title>star-half</title>
<path d="M64 24.816l-22.111-3.213-9.889-20.036-9.889 20.036-22.111 3.213 16 15.596-3.777 22.022 19.777-10.397 19.777 10.397-3.777-22.022 16-15.596zM32 47.094l-0.059 0.031 0.059-35.673 6.983 14.15 15.615 2.269-11.299 11.014 2.667 15.552-13.966-7.343z"></path>
</symbol>
<symbol id="dv4-star-full" viewBox="0 0 64 64">
<title>star-full</title>
<path d="M64 24.816l-22.111-3.213-9.889-20.036-9.889 20.036-22.111 3.213 16 15.596-3.777 22.022 19.777-10.397 19.777 10.397-3.777-22.022 16-15.596z"></path>
</symbol>
<symbol id="dv4-warning" viewBox="0 0 64 64">
<title>warning</title>
<path d="M32 5.798l26.819 53.452h-53.638l26.819-53.452zM32 0c-1.379 0-2.759 0.93-3.805 2.791l-27.317 54.444c-2.093 3.721-0.313 6.765 3.957 6.765h54.332c4.269 0 6.049-3.044 3.956-6.765h0l-27.317-54.444c-1.046-1.86-2.426-2.791-3.805-2.791v0z"></path>
<path d="M36 52c0 2.209-1.791 4-4 4s-4-1.791-4-4c0-2.209 1.791-4 4-4s4 1.791 4 4z"></path>
<path d="M32 44c-2.209 0-4-1.791-4-4v-12c0-2.209 1.791-4 4-4s4 1.791 4 4v12c0 2.209-1.791 4-4 4z"></path>
</symbol>
<symbol id="dv4-notification" viewBox="0 0 64 64">
<title>notification</title>
<path d="M32 6c-6.945 0-13.474 2.704-18.385 7.615s-7.615 11.44-7.615 18.385c0 6.945 2.704 13.474 7.615 18.385s11.44 7.615 18.385 7.615c6.945 0 13.474-2.705 18.385-7.615s7.615-11.44 7.615-18.385c0-6.945-2.705-13.474-7.615-18.385s-11.44-7.615-18.385-7.615zM32 0v0c17.673 0 32 14.327 32 32s-14.327 32-32 32c-17.673 0-32-14.327-32-32s14.327-32 32-32zM28 44h8v8h-8zM28 12h8v24h-8z"></path>
</symbol>
<symbol id="dv4-info" viewBox="0 0 64 64">
<title>info</title>
<path d="M28 19c0-1.65 1.35-3 3-3h2c1.65 0 3 1.35 3 3v2c0 1.65-1.35 3-3 3h-2c-1.65 0-3-1.35-3-3v-2z"></path>
<path d="M40 48h-16v-4h4v-12h-4v-4h12v16h4z"></path>
<path d="M32 0c-17.673 0-32 14.327-32 32s14.327 32 32 32 32-14.327 32-32-14.327-32-32-32zM32 58c-14.359 0-26-11.641-26-26s11.641-26 26-26 26 11.641 26 26-11.641 26-26 26z"></path>
</symbol>
<symbol id="dv4-cancel-circle" viewBox="0 0 64 64">
<title>cancel-circle</title>
<path d="M32 0c-17.673 0-32 14.327-32 32s14.327 32 32 32 32-14.327 32-32-14.327-32-32-32zM32 58c-14.359 0-26-11.641-26-26s11.641-26 26-26 26 11.641 26 26-11.641 26-26 26z"></path>
<path d="M42 16l-10 10-10-10-6 6 10 10-10 10 6 6 10-10 10 10 6-6-10-10 10-10z"></path>
</symbol>
<symbol id="dv4-cross" viewBox="0 0 64 64">
<title>cross</title>
<path d="M63.416 51.416c-0-0-0.001-0.001-0.001-0.001l-19.415-19.416 19.415-19.416c0-0 0.001-0 0.001-0.001 0.209-0.209 0.36-0.453 0.457-0.713 0.265-0.711 0.114-1.543-0.458-2.114l-9.172-9.172c-0.572-0.572-1.403-0.723-2.114-0.458-0.26 0.097-0.504 0.248-0.714 0.457 0 0-0 0-0.001 0.001l-19.416 19.416-19.416-19.416c-0-0-0-0-0.001-0.001-0.209-0.209-0.453-0.36-0.713-0.457-0.711-0.266-1.543-0.114-2.114 0.457l-9.172 9.172c-0.572 0.572-0.723 1.403-0.458 2.114 0.097 0.26 0.248 0.505 0.457 0.713 0 0 0 0 0.001 0.001l19.416 19.416-19.416 19.416c-0 0-0 0-0 0.001-0.209 0.209-0.36 0.453-0.457 0.713-0.266 0.711-0.114 1.543 0.458 2.114l9.172 9.172c0.572 0.572 1.403 0.723 2.114 0.458 0.26-0.097 0.504-0.248 0.713-0.457 0-0 0-0 0.001-0.001l19.416-19.416 19.416 19.416c0 0 0.001 0 0.001 0.001 0.209 0.209 0.453 0.36 0.713 0.457 0.711 0.265 1.543 0.114 2.114-0.458l9.172-9.172c0.572-0.572 0.723-1.403 0.458-2.114-0.097-0.26-0.248-0.504-0.457-0.713z"></path>
</symbol>
<symbol id="dv4-checkmark" viewBox="0 0 64 64">
<title>checkmark</title>
<path d="M54 8l-30 30-14-14-10 10 24 24 40-40z"></path>
</symbol>
<symbol id="dv4-checkmark2" viewBox="0 0 64 64">
<title>checkmark2</title>
<path d="M24.84 57.356l-24.867-24.475 12.336-12.142 12.531 12.333 26.851-26.428 12.336 12.142-39.187 38.57zM6.745 32.881l18.095 17.81 32.416-31.905-5.565-5.477-26.851 26.428-12.531-12.333-5.565 5.477z"></path>
</symbol>
<symbol id="dv4-enter" viewBox="0 0 64 64">
<title>enter</title>
<path d="M24 32h-20v-8h20v-8l12 12-12 12zM64 0v52l-24 12v-12h-24v-16h4v12h20v-36l16-8h-36v16h-4v-20z"></path>
</symbol>
<symbol id="dv4-exit" viewBox="0 0 64 64">
<title>exit</title>
<path d="M48 40v-8h-20v-8h20v-8l12 12zM44 36v16h-20v12l-24-12v-52h44v20h-4v-16h-32l16 8v36h16v-12z"></path>
</symbol>
<symbol id="dv4-play2" viewBox="0 0 64 64">
<title>play2</title>
<path d="M32 0c-17.673 0-32 14.327-32 32s14.327 32 32 32 32-14.327 32-32-14.327-32-32-32zM32 58c-14.359 0-26-11.641-26-26s11.641-26 26-26 26 11.641 26 26-11.641 26-26 26zM24 18l24 14-24 14z"></path>
</symbol>
<symbol id="dv4-pause" viewBox="0 0 64 64">
<title>pause</title>
<path d="M32 0c-17.673 0-32 14.327-32 32s14.327 32 32 32 32-14.327 32-32-14.327-32-32-32zM32 58c-14.359 0-26-11.641-26-26s11.641-26 26-26 26 11.641 26 26-11.641 26-26 26zM20 20h8v24h-8zM36 20h8v24h-8z"></path>
</symbol>
<symbol id="dv4-stop" viewBox="0 0 64 64">
<title>stop</title>
<path d="M32 0c-17.673 0-32 14.327-32 32s14.327 32 32 32 32-14.327 32-32-14.327-32-32-32zM32 58c-14.359 0-26-11.641-26-26s11.641-26 26-26 26 11.641 26 26-11.641 26-26 26zM20 20h24v24h-24z"></path>
</symbol>
<symbol id="dv4-previous" viewBox="0 0 64 64">
<title>previous</title>
<path d="M32 0c-17.673 0-32 14.327-32 32s14.327 32 32 32 32-14.327 32-32-14.327-32-32-32zM32 58c-14.359 0-26-11.641-26-26s11.641-26 26-26 26 11.641 26 26-11.641 26-26 26z"></path>
<path d="M28 32l16-12v24z"></path>
<path d="M20 20h8v24h-8v-24z"></path>
</symbol>
<symbol id="dv4-next" viewBox="0 0 64 64">
<title>next</title>
<path d="M32 0c17.673 0 32 14.327 32 32s-14.327 32-32 32-32-14.327-32-32 14.327-32 32-32zM32 58c14.359 0 26-11.641 26-26s-11.641-26-26-26-26 11.641-26 26 11.641 26 26 26z"></path>
<path d="M36 32l-16-12v24z"></path>
<path d="M44 20h-8v24h8v-24z"></path>
</symbol>
<symbol id="dv4-backward" viewBox="0 0 64 64">
<title>backward</title>
<path d="M32 64c17.673 0 32-14.327 32-32s-14.327-32-32-32-32 14.327-32 32 14.327 32 32 32zM32 6c14.359 0 26 11.641 26 26s-11.641 26-26 26-26-11.641-26-26 11.641-26 26-26zM44 42l-14-10 14-10zM28 42l-14-10 14-10z"></path>
</symbol>
<symbol id="dv4-forward2" viewBox="0 0 64 64">
<title>forward2</title>
<path d="M32 0c-17.673 0-32 14.327-32 32s14.327 32 32 32 32-14.327 32-32-14.327-32-32-32zM32 58c-14.359 0-26-11.641-26-26s11.641-26 26-26 26 11.641 26 26-11.641 26-26 26zM20 22l14 10-14 10zM36 22l14 10-14 10z"></path>
</symbol>
<symbol id="dv4-arrow-right" viewBox="0 0 64 64">
<title>arrow-right</title>
<path d="M62 32l-30-30v18h-32v24h32v18z"></path>
</symbol>
<symbol id="dv4-arrow-right2" viewBox="0 0 64 64">
<title>arrow-right2</title>
<path d="M38.828 54.828l20-20c1.562-1.562 1.562-4.095 0-5.657l-20-20c-1.562-1.562-4.095-1.562-5.657 0s-1.562 4.095 0 5.657l13.172 13.172h-38.343c-2.209 0-4 1.791-4 4s1.791 4 4 4h38.343l-13.172 13.172c-0.781 0.781-1.172 1.805-1.172 2.828s0.391 2.047 1.172 2.828c1.562 1.562 4.095 1.562 5.657 0z"></path>
</symbol>
<symbol id="dv4-circle-right" viewBox="0 0 64 64">
<title>circle-right</title>
<path d="M32 0c-17.673 0-32 14.327-32 32s14.327 32 32 32 32-14.327 32-32-14.327-32-32-32zM32 58c-14.359 0-26-11.641-26-26s11.641-26 26-26 26 11.641 26 26-11.641 26-26 26z"></path>
<path d="M22.172 44.172l5.657 5.657 17.828-17.828-17.828-17.828-5.657 5.657 12.171 12.172z"></path>
</symbol>
<symbol id="dv4-paragraph-left" viewBox="0 0 64 64">
<title>paragraph-left</title>
<path d="M0 4h64v8h-64zM0 16h40v8h-40zM0 40h40v8h-40zM0 28h64v8h-64zM0 52h64v8h-64z"></path>
</symbol>
<symbol id="dv4-paragraph-center" viewBox="0 0 64 64">
<title>paragraph-center</title>
<path d="M0 4h64v8h-64zM12 16h40v8h-40zM12 40h40v8h-40zM0 28h64v8h-64zM0 52h64v8h-64z"></path>
</symbol>
<symbol id="dv4-paragraph-right" viewBox="0 0 64 64">
<title>paragraph-right</title>
<path d="M0 4h64v8h-64zM24 16h40v8h-40zM24 40h40v8h-40zM0 28h64v8h-64zM0 52h64v8h-64z"></path>
</symbol>
<symbol id="dv4-paragraph-justify" viewBox="0 0 64 64">
<title>paragraph-justify</title>
<path d="M0 4h64v8h-64zM0 16h64v8h-64zM0 28h64v8h-64zM0 40h64v8h-64zM0 52h64v8h-64z"></path>
</symbol>
<symbol id="dv4-embed2" viewBox="0 0 80 64">
<title>embed2</title>
<path d="M52 46l6 6 20-20-20-20-6 6 14 14z"></path>
<path d="M28 18l-6-6-20 20 20 20 6-6-14-14z"></path>
<path d="M43.831 9.407l4.342 1.184-11.999 44.002-4.342-1.184 11.999-44.002z"></path>
</symbol>
<symbol id="dv4-share2" viewBox="0 0 64 64">
<title>share2</title>
<path d="M54 44c-2.822 0-5.37 1.171-7.188 3.052l-26.938-13.469c0.082-0.516 0.126-1.044 0.126-1.583s-0.044-1.067-0.126-1.583l26.938-13.469c1.818 1.881 4.366 3.052 7.188 3.052 5.523 0 10-4.477 10-10s-4.477-10-10-10-10 4.477-10 10c0 0.539 0.044 1.067 0.126 1.583l-26.938 13.469c-1.818-1.881-4.366-3.052-7.188-3.052-5.523 0-10 4.477-10 10s4.477 10 10 10c2.822 0 5.37-1.171 7.188-3.052l26.938 13.469c-0.082 0.516-0.126 1.044-0.126 1.583 0 5.523 4.477 10 10 10s10-4.477 10-10c0-5.523-4.477-10-10-10z"></path>
</symbol>
</defs>
</svg>
